<?xml version="1.0"?>
<svg xmlns="http://www.w3.org/2000/svg" id="Layer_1" data-name="Layer 1" viewBox="0 0 512 512" width="512px" height="512px" class=""><g><title>alarm 01</title><path d="M286,423.467c-94.009,0-170.491-76.781-170.491-171.158a170.7,170.7,0,0,1,36.118-105.336A171.054,171.054,0,0,0,85.509,282.309c0,94.377,76.482,171.158,170.491,171.158a170.052,170.052,0,0,0,134.347-65.9A169.208,169.208,0,0,1,286,423.467Z" style="fill:#d4e1f4" data-original="#D4E1F4"/><path d="M90.973,452.549a27.667,27.667,0,0,0,4.859,38.68,27.246,27.246,0,0,0,16.818,5.805,28.025,28.025,0,0,0,3.484-.219,27.3,27.3,0,0,0,18.3-10.463l32.451-41.963a183.575,183.575,0,0,0,178.264-.025l32.47,41.987a27.3,27.3,0,0,0,18.3,10.464,27.834,27.834,0,0,0,3.484.219,27.244,27.244,0,0,0,16.818-5.805,27.667,27.667,0,0,0,4.859-38.68l-32.33-41.806a185.251,185.251,0,0,0,1.859-255.019l20.413-21.466a7,7,0,1,0-10.145-9.648l-20.2,21.239a184.657,184.657,0,0,0-45.946-31.029,184.294,184.294,0,0,0-157.483,0,184.683,184.683,0,0,0-46.568,31.611l-20.75-21.82A7,7,0,1,0,99.8,134.258l21,22.087a185.444,185.444,0,0,0,2.474,254.434Zm32.391,25.238a13.45,13.45,0,0,1-18.928,2.4,13.641,13.641,0,0,1-2.388-19.071l31.366-40.56a185.718,185.718,0,0,0,21.434,16.522Zm284.263,2.4a13.45,13.45,0,0,1-18.928-2.4l-31.5-40.738a185.911,185.911,0,0,0,21.429-16.528l31.392,40.593A13.641,13.641,0,0,1,407.627,480.185ZM101.771,209.264a171.58,171.58,0,0,1,81.49-81.8,170.3,170.3,0,0,1,145.481,0,171.15,171.15,0,0,1,97.749,154.84c0,94.377-76.482,171.158-170.491,171.158S85.509,376.686,85.509,282.309A170.069,170.069,0,0,1,101.771,209.264Z" style="fill:#0635c9" data-original="#0635C9" class=""/><path d="M82.249,171.874a141.831,141.831,0,0,1,65.376-65.444,14.823,14.823,0,0,0,4.041-2.875h0a14.925,14.925,0,0,0,0-21.028l-18.638-18.48C127.639,58.634,120.05,56,111.082,56h-.007C94.082,56,73.124,66.211,56.381,83.017c-26.773,26.875-35.074,60.521-18.9,76.744l17.041,16.862A17.042,17.042,0,0,0,67,181.7v-.015a17.994,17.994,0,0,0,12.116-5.117A16.787,16.787,0,0,0,82.249,171.874Zm-13.236-5.192a3.348,3.348,0,0,1-2.382.99h0a3.337,3.337,0,0,1-2.375-.987L47.4,149.764C36.2,138.535,48.374,110.891,66.3,92.9,80.3,78.847,97.871,70,111.075,70h0c5.237,0,9.284,1.169,12.029,3.927l18.64,18.6a.781.781,0,0,1-.236,1.34,155.865,155.865,0,0,0-71.86,71.915A3.31,3.31,0,0,1,69.013,166.682Z" style="fill:#96C6CF" data-original="#1AE5BE" class="active-path" data-old_color="#1AE5BE"/><path d="M400.918,56c-8.968,0-16.557,2.634-21.945,8.046l-18.641,18.6a14.774,14.774,0,0,0,4.043,23.816,141.81,141.81,0,0,1,65.377,65.431,17.259,17.259,0,0,0,3.314,4.678l4.958-4.944-4.864,5.034a17.23,17.23,0,0,0,24.412,0l16.944-17.008c16.177-16.225,7.876-49.758-18.9-76.632C438.875,66.21,417.919,56,400.925,56ZM445.7,92.9c22.334,22.418,27.886,47.968,18.9,56.98l0-.055-16.946,16.982a3.186,3.186,0,0,1-2.286.934,3.229,3.229,0,0,1-2.29-.959l-.095-.1a3.423,3.423,0,0,1-.636-.916,155.9,155.9,0,0,0-71.86-71.931.875.875,0,0,1-.236-1.427l18.642-18.483C391.637,71.169,395.683,70,400.92,70h0C414.129,70,431.7,78.849,445.7,92.9Z" style="fill:#96C6CF" data-original="#1AE5BE" class="active-path" data-old_color="#1AE5BE"/><path d="M367,282a7,7,0,0,0-7-7H280.505c-3.063-10-12.885-18.386-24.5-18.386a25.335,25.335,0,0,0-10.824,2.487L166.155,173.1a7.007,7.007,0,0,0-10.31,9.493l78.787,85.788A25.469,25.469,0,1,0,280.537,289H360A7,7,0,0,0,367,282ZM256,293.879a11.57,11.57,0,1,1,11.5-11.57A11.548,11.548,0,0,1,256,293.879Z" style="fill:#96C6CF" data-original="#1AE5BE" class="active-path" data-old_color="#1AE5BE"/></g> </svg>
