<?xml version="1.0"?>
<svg xmlns="http://www.w3.org/2000/svg" xmlns:xlink="http://www.w3.org/1999/xlink" version="1.1" id="Layer_1" x="0px" y="0px" viewBox="0 0 512 512" style="enable-background:new 0 0 512 512;" xml:space="preserve" width="512px" height="512px" class=""><g><polygon style="fill:#96C6CF" points="478.609,155.826 478.609,100.174 445.217,100.174 445.217,66.783 411.826,66.783   411.826,33.391 356.174,33.391 356.174,0 155.826,0 155.826,33.391 100.174,33.391 100.174,66.783 66.783,66.783 66.783,100.174   33.391,100.174 33.391,155.826 0.008,155.829 0.008,356.177 33.391,356.177 33.391,411.826 66.783,411.826 66.783,422.957   66.783,445.217 100.174,445.217 100.174,456.348 100.174,478.609 155.826,478.609 155.826,489.739 155.826,512 356.174,512   356.174,489.739 356.174,478.609 411.826,478.609 411.826,456.348 411.826,445.217 445.217,445.217 445.217,422.957   445.217,411.826 478.609,411.826 478.609,356.177 489.746,356.177 489.746,356.174 512,356.174 512,155.826 " data-original="#006DF3" class="active-path" data-old_color="#006DF3"/><polygon style="fill:#FFFFFF;" points="445.217,155.826 411.826,155.826 411.826,100.171 356.174,100.171 356.174,66.779   155.826,66.779 155.826,100.171 100.174,100.171 100.174,155.826 66.783,155.826 66.783,356.174 100.174,356.174 100.174,389.565   100.174,411.826 155.826,411.826 155.826,422.957 155.826,445.217 356.174,445.217 356.174,422.957 356.174,411.826   411.826,411.826 411.826,389.565 411.826,356.174 445.217,356.174 " data-original="#FFFFFF" class=""/><rect x="100.174" y="33.391" width="55.652" height="33.391" data-original="#000000" class="" style="fill:#000000"/><rect x="66.783" y="66.783" width="33.391" height="33.391" data-original="#000000" class="" style="fill:#000000"/><rect x="33.391" y="100.174" width="33.391" height="55.652" data-original="#000000" class="" style="fill:#000000"/><rect x="33.391" y="356.174" width="33.391" height="55.652" data-original="#000000" class="" style="fill:#000000"/><rect x="66.783" y="411.826" width="33.391" height="33.391" data-original="#000000" class="" style="fill:#000000"/><rect x="100.174" y="445.217" width="55.652" height="33.391" data-original="#000000" class="" style="fill:#000000"/><rect x="155.826" width="200.348" height="33.391" data-original="#000000" class="" style="fill:#000000"/><rect x="155.826" y="478.609" width="200.348" height="33.391" data-original="#000000" class="" style="fill:#000000"/><rect y="155.826" width="33.391" height="200.348" data-original="#000000" class="" style="fill:#000000"/><rect x="356.174" y="33.391" width="55.652" height="33.391" data-original="#000000" class="" style="fill:#000000"/><rect x="411.826" y="66.783" width="33.391" height="33.391" data-original="#000000" class="" style="fill:#000000"/><rect x="445.217" y="100.174" width="33.391" height="55.652" data-original="#000000" class="" style="fill:#000000"/><rect x="445.217" y="356.174" width="33.391" height="55.652" data-original="#000000" class="" style="fill:#000000"/><rect x="411.826" y="411.826" width="33.391" height="33.391" data-original="#000000" class="" style="fill:#000000"/><rect x="356.174" y="445.217" width="55.652" height="33.391" data-original="#000000" class="" style="fill:#000000"/><rect x="478.609" y="155.826" width="33.391" height="200.348" data-original="#000000" class="" style="fill:#000000"/><polygon points="278.261,77.913 244.87,77.913 244.87,233.739 144.696,233.739 144.696,267.13 278.261,267.13 278.261,244.87   278.261,244.87 " data-original="#000000" class="" style="fill:#000000"/></g> </svg>
