<?xml version="1.0"?>
<svg xmlns="http://www.w3.org/2000/svg" xmlns:xlink="http://www.w3.org/1999/xlink" version="1.1" id="Layer_1" x="0px" y="0px" viewBox="0 0 512 512" style="enable-background:new 0 0 512 512;" xml:space="preserve" width="512px" height="512px" class=""><g><polygon style="fill:#96C6CF" points="422.957,55.652 422.957,22.261 389.565,22.261 389.565,55.652 322.783,55.652   322.783,22.261 289.391,22.261 289.391,55.652 222.609,55.652 222.609,22.261 189.217,22.261 189.217,55.652 122.435,55.652   122.435,22.261 89.043,22.261 89.043,55.652 0,55.652 0,89.043 0,456.348 22.261,456.348 33.391,456.348 33.391,489.739   478.609,489.739 478.609,456.348 489.739,456.348 512,456.348 512,89.043 512,55.652 " data-original="#FF52A0" class="" data-old_color="#FF52A0"/><g>
	<rect x="222.609" y="356.174" style="fill:#FFFFFF;" width="33.391" height="66.783" data-original="#FFFFFF"/>
	<polygon style="fill:#FFFFFF;" points="155.826,200.348 322.783,200.348 322.783,256 356.174,256 356.174,166.957 155.826,166.957     " data-original="#FFFFFF"/>
	<rect x="256" y="289.391" style="fill:#FFFFFF;" width="33.391" height="66.783" data-original="#FFFFFF"/>
	<rect x="289.391" y="256" style="fill:#FFFFFF;" width="33.391" height="33.391" data-original="#FFFFFF"/>
	<polygon style="fill:#FFFFFF;" points="55.652,55.652 44.522,55.652 0,55.652 0,456.348 33.391,456.348 33.391,489.739    55.652,489.739 55.652,456.348 55.652,422.957 55.652,111.304 512,111.304 512,55.652  " data-original="#FFFFFF"/>
</g><rect x="33.391" y="456.348" width="445.217" height="33.391" data-original="#000000" class="active-path" style="fill:#000000"/><polygon points="422.957,55.652 422.957,22.261 389.565,22.261 389.565,55.652 322.783,55.652 322.783,22.261 289.391,22.261   289.391,55.652 222.609,55.652 222.609,22.261 189.217,22.261 189.217,55.652 122.435,55.652 122.435,22.261 89.043,22.261   89.043,55.652 0,55.652 0,89.043 0,456.348 33.391,456.348 33.391,89.043 89.043,89.043 89.043,122.435 122.435,122.435   122.435,89.043 189.217,89.043 189.217,122.435 222.609,122.435 222.609,89.043 289.391,89.043 289.391,122.435 322.783,122.435   322.783,89.043 389.565,89.043 389.565,122.435 422.957,122.435 422.957,89.043 478.609,89.043 478.609,456.348 512,456.348   512,89.043 512,55.652 " data-original="#000000" class="active-path" style="fill:#000000"/></g> </svg>
