<?xml version="1.0"?>
<svg xmlns="http://www.w3.org/2000/svg" xmlns:xlink="http://www.w3.org/1999/xlink" version="1.1" id="Layer_1" x="0px" y="0px" viewBox="0 0 512 512" style="enable-background:new 0 0 512 512;" xml:space="preserve" width="512px" height="512px" class=""><g><polygon style="fill:#96C6CF" points="478.609,166.957 478.609,100.174 445.217,100.174 445.217,66.783 411.826,66.783   411.826,33.391 345.043,33.391 345.043,0 166.957,0 166.957,33.391 100.174,33.391 100.174,66.783 66.783,66.783 66.783,100.174   33.391,100.174 33.391,166.957 0,166.957 0,345.043 33.391,345.043 33.391,411.826 66.783,411.826 66.783,445.217 100.174,445.217   100.174,478.609 166.957,478.609 166.957,512 345.043,512 345.043,478.609 411.826,478.609 411.826,445.217 445.217,445.217   445.217,411.826 478.609,411.826 478.609,345.043 512,345.043 512,166.957 " data-original="#83C9FF" class="" data-old_color="#83C9FF"/><rect x="66.783" y="66.783" width="33.391" height="33.391" data-original="#000000" class="active-path" style="fill:#000000"/><polygon points="411.826,33.391 345.043,33.391 345.043,0 166.957,0 166.957,33.391 100.174,33.391 100.174,66.783 166.957,66.783   166.957,33.391 345.043,33.391 345.043,66.783 411.826,66.783 411.826,100.174 445.217,100.174 445.217,66.783 411.826,66.783 " data-original="#000000" class="active-path" style="fill:#000000"/><rect x="445.217" y="100.174" width="33.391" height="66.783" data-original="#000000" class="active-path" style="fill:#000000"/><rect x="478.609" y="166.957" width="33.391" height="178.087" data-original="#000000" class="active-path" style="fill:#000000"/><rect x="445.217" y="345.043" width="33.391" height="66.783" data-original="#000000" class="active-path" style="fill:#000000"/><polygon points="33.391,166.957 0,166.957 0,345.043 33.391,345.043 33.391,411.826 66.783,411.826 66.783,445.217 100.174,445.217   100.174,411.826 66.783,411.826 66.783,345.043 33.391,345.043 33.391,166.957 66.783,166.957 66.783,100.174 33.391,100.174 " data-original="#000000" class="active-path" style="fill:#000000"/><polygon points="166.957,478.609 166.957,512 345.043,512 345.043,478.609 411.826,478.609 411.826,445.217 345.043,445.217   345.043,478.609 166.957,478.609 166.957,445.217 100.174,445.217 100.174,478.609 " data-original="#000000" class="active-path" style="fill:#000000"/><rect x="411.826" y="411.826" width="33.391" height="33.391" data-original="#000000" class="active-path" style="fill:#000000"/><rect x="233.739" y="378.435" width="33.391" height="33.391" data-original="#000000" class="active-path" style="fill:#000000"/><rect x="233.739" y="278.261" width="33.391" height="66.783" data-original="#000000" class="active-path" style="fill:#000000"/><rect x="267.13" y="244.87" width="44.522" height="33.391" data-original="#000000" class="active-path" style="fill:#000000"/><rect x="311.652" y="133.565" width="33.391" height="111.304" data-original="#000000" class="active-path" style="fill:#000000"/><rect x="189.217" y="100.174" width="122.435" height="33.391" data-original="#000000" class="active-path" style="fill:#000000"/><rect x="155.826" y="133.565" width="33.391" height="66.783" data-original="#000000" class="active-path" style="fill:#000000"/></g> </svg>
