<?xml version="1.0"?>
<svg xmlns="http://www.w3.org/2000/svg" xmlns:xlink="http://www.w3.org/1999/xlink" version="1.1" id="Layer_1" x="0px" y="0px" viewBox="0 0 512 512" style="enable-background:new 0 0 512 512;" xml:space="preserve" width="512px" height="512px" class=""><g><path style="fill:#96C6CF" d="M478.609,222.609v-33.391h-33.391v-66.783h33.391V66.783h-33.391V33.391h-55.652v33.391h-66.783  V33.391h-33.391V0h-66.783v33.391h-33.391v33.391h-66.783V33.391H66.783v33.391H33.391v55.652h33.391v66.783H33.391v33.391H0v66.783  h33.391l0,0v33.391h33.391v66.783H33.391v55.652h33.391v33.391h55.652v-33.391h66.783v33.391h33.391V512h66.783v-33.391h33.391  v-33.391h66.783v33.391h55.652v-33.391h33.391v-55.652h-33.391v-66.783h33.391v-33.391H512v-66.783H478.609z M311.652,311.652  v33.391H200.348v-33.391h-33.391V200.348h33.391v-33.391h111.304v33.391h33.391v111.304H311.652z" data-original="#FFAE37" class="" data-old_color="#FFAE37"/><g>
	<rect x="389.565" y="389.565" style="fill:#FFFFFF;" width="33.391" height="33.391" data-original="#FFFFFF" class=""/>
	<polygon style="fill:#FFFFFF;" points="66.783,66.783 33.391,66.783 33.391,100.174 66.783,100.174 100.174,100.174    100.174,66.783 100.174,33.391 66.783,33.391  " data-original="#FFFFFF" class=""/>
	<polygon style="fill:#FFFFFF;" points="222.609,33.391 189.217,33.391 189.217,66.783 222.609,66.783 256,66.783 256,33.391 256,0    222.609,0  " data-original="#FFFFFF" class=""/>
	<polygon style="fill:#FFFFFF;" points="422.957,100.174 422.957,66.783 422.957,33.391 389.565,33.391 389.565,66.783    356.174,66.783 356.174,100.174 389.565,100.174  " data-original="#FFFFFF" class=""/>
	<polygon style="fill:#FFFFFF;" points="66.783,256 66.783,222.609 66.783,189.217 33.391,189.217 33.391,222.609 0,222.609 0,256    33.391,256  " data-original="#FFFFFF" class=""/>
	<polygon style="fill:#FFFFFF;" points="66.783,389.565 33.391,389.565 33.391,422.957 66.783,422.957 100.174,422.957    100.174,389.565 100.174,356.174 66.783,356.174  " data-original="#FFFFFF" class=""/>
	<polygon style="fill:#FFFFFF;" points="189.217,411.826 189.217,445.217 222.609,445.217 256,445.217 256,411.826 222.609,411.826     " data-original="#FFFFFF" class=""/>
	<polygon style="fill:#FFFFFF;" points="411.826,189.217 411.826,222.609 411.826,256 445.217,256 445.217,222.609 445.217,189.217     " data-original="#FFFFFF" class=""/>
</g><rect x="200.348" y="133.565" width="111.304" height="33.391" data-original="#000000" class="active-path" style="fill:#000000"/><rect x="200.348" y="345.043" width="111.304" height="33.391" data-original="#000000" class="active-path" style="fill:#000000"/><rect x="345.043" y="200.348" width="33.391" height="111.304" data-original="#000000" class="active-path" style="fill:#000000"/><rect x="133.565" y="200.348" width="33.391" height="111.304" data-original="#000000" class="active-path" style="fill:#000000"/><rect x="166.957" y="166.957" width="33.391" height="33.391" data-original="#000000" class="active-path" style="fill:#000000"/><rect x="311.652" y="166.957" width="33.391" height="33.391" data-original="#000000" class="active-path" style="fill:#000000"/><rect x="166.957" y="311.652" width="33.391" height="33.391" data-original="#000000" class="active-path" style="fill:#000000"/><rect x="311.652" y="311.652" width="33.391" height="33.391" data-original="#000000" class="active-path" style="fill:#000000"/><polygon points="222.609,100.174 222.609,33.391 189.217,33.391 189.217,66.783 122.435,66.783 122.435,100.174 " data-original="#000000" class="active-path" style="fill:#000000"/><rect x="33.391" y="66.783" width="33.391" height="55.652" data-original="#000000" class="active-path" style="fill:#000000"/><rect x="66.783" y="33.391" width="55.652" height="33.391" data-original="#000000" class="active-path" style="fill:#000000"/><rect x="389.565" y="33.391" width="55.652" height="33.391" data-original="#000000" class="active-path" style="fill:#000000"/><rect x="445.217" y="66.783" width="33.391" height="55.652" data-original="#000000" class="active-path" style="fill:#000000"/><polygon points="389.565,100.174 389.565,66.783 322.783,66.783 322.783,33.391 289.391,33.391 289.391,100.174 " data-original="#000000" class="active-path" style="fill:#000000"/><rect x="222.609" width="66.783" height="33.391" data-original="#000000" class="active-path" style="fill:#000000"/><polygon points="100.174,389.565 100.174,289.391 33.391,289.391 33.391,322.783 66.783,322.783 66.783,389.565 " data-original="#000000" class="active-path" style="fill:#000000"/><rect x="33.391" y="389.565" width="33.391" height="55.652" data-original="#000000" class="active-path" style="fill:#000000"/><rect x="66.783" y="445.217" width="55.652" height="33.391" data-original="#000000" class="active-path" style="fill:#000000"/><polygon points="289.391,411.826 289.391,478.609 322.783,478.609 322.783,445.217 389.565,445.217 389.565,411.826 " data-original="#000000" class="active-path" style="fill:#000000"/><polygon points="445.217,322.783 478.609,322.783 478.609,289.391 411.826,289.391 411.826,389.565 445.217,389.565 " data-original="#000000" class="active-path" style="fill:#000000"/><rect x="445.217" y="389.565" width="33.391" height="55.652" data-original="#000000" class="active-path" style="fill:#000000"/><rect x="389.565" y="445.217" width="55.652" height="33.391" data-original="#000000" class="active-path" style="fill:#000000"/><polygon points="122.435,411.826 122.435,445.217 189.217,445.217 189.217,478.609 222.609,478.609 222.609,411.826 " data-original="#000000" class="active-path" style="fill:#000000"/><rect x="222.609" y="478.609" width="66.783" height="33.391" data-original="#000000" class="active-path" style="fill:#000000"/><polygon points="478.609,222.609 478.609,189.217 445.217,189.217 445.217,122.435 411.826,122.435 411.826,222.609 411.826,222.61   478.609,222.609 478.609,289.391 512,289.391 512,222.609 " data-original="#000000" class="active-path" style="fill:#000000"/><polygon points="33.391,222.609 100.174,222.609 100.174,122.435 66.783,122.435 66.783,189.217 33.391,189.217 33.391,222.609   0,222.609 0,289.391 33.391,289.391 " data-original="#000000" class="active-path" style="fill:#000000"/></g> </svg>
